<?xml version="1.0" encoding="utf-8"?>
<!-- Generator: Adobe Illustrator 21.0.0, SVG Export Plug-In . SVG Version: 6.00 Build 0)  -->
<svg version="1.1" id="Layer_1" xmlns="http://www.w3.org/2000/svg" xmlns:xlink="http://www.w3.org/1999/xlink" x="0px" y="0px"
	 viewBox="0 0 64 64" style="enable-background:new 0 0 64 64;" xml:space="preserve">
<style type="text/css">
	.st0{fill:#039BE5;stroke:#0277BD;stroke-linecap:round;stroke-linejoin:round;stroke-miterlimit:10;}
	.st1{fill:#81D4FA;stroke:#0277BD;stroke-linecap:round;stroke-linejoin:round;stroke-miterlimit:10;}
	.st2{fill:#EC407A;stroke:#0277BD;stroke-linecap:round;stroke-linejoin:round;stroke-miterlimit:10;}
	.st3{fill:#FFA726;stroke:#0277BD;stroke-linecap:round;stroke-linejoin:round;stroke-miterlimit:10;}
	.st4{fill:#80CBC4;stroke:#0277BD;stroke-linecap:round;stroke-linejoin:round;stroke-miterlimit:10;}
	.st5{fill:none;stroke:#F48FB1;stroke-linecap:round;stroke-linejoin:round;stroke-miterlimit:10;}
	.st6{fill:none;stroke:#FFCC80;stroke-linecap:round;stroke-linejoin:round;stroke-miterlimit:10;}
	.st7{fill:none;stroke:#E0F2F1;stroke-linecap:round;stroke-linejoin:round;stroke-miterlimit:10;}
	.st8{fill:none;stroke:#26A69A;stroke-linecap:round;stroke-linejoin:round;stroke-miterlimit:10;}
	.st9{fill:none;stroke:#F57C00;stroke-linecap:round;stroke-linejoin:round;stroke-miterlimit:10;}
	.st10{fill:none;stroke:#D81B60;stroke-linecap:round;stroke-linejoin:round;stroke-miterlimit:10;}
	.st11{fill:#EEEEEE;stroke:#0277BD;stroke-linecap:round;stroke-linejoin:round;stroke-miterlimit:10;}
	.st12{fill:none;stroke:#BDBDBD;stroke-linecap:round;stroke-linejoin:round;stroke-miterlimit:10;}
	.st13{fill:none;stroke:#E1F5FE;stroke-linecap:round;stroke-linejoin:round;stroke-miterlimit:10;}
	.st14{fill:none;stroke:#FFFFFF;stroke-linecap:round;stroke-linejoin:round;stroke-miterlimit:10;}
	.st15{fill:none;stroke:#29B6F6;stroke-linecap:round;stroke-linejoin:round;stroke-miterlimit:10;}
	.st16{fill:none;stroke:#4FC3F7;stroke-linecap:round;stroke-linejoin:round;stroke-miterlimit:10;}
	.st17{fill:none;stroke:#0277BD;stroke-linecap:round;stroke-linejoin:round;stroke-miterlimit:10;}
</style>
<g id="Airship">
	<g>
		<path class="st11" d="M45.8,42.5H25.2c-1.3,0-2.5-0.9-2.9-2.1l-1.8-5.9h30l-1.8,5.9C48.3,41.6,47.1,42.5,45.8,42.5z"/>
		<path class="st12" d="M45.8,40.5H25.2"/>
		<polygon class="st2" points="0.5,33 9.5,33 15.5,18.5 9.5,4 0.5,4 6.5,18.5 		"/>
		<path class="st5" d="M3.5,6h4.7"/>
		<path class="st10" d="M8.2,31H3.5"/>
		<ellipse class="st1" cx="35.5" cy="18.5" rx="28" ry="18"/>
		<path class="st13" d="M9.5,18.5c0-8.8,11.7-16,26-16 M35.5,2.5c14.3,0,26,7.2,26,16"/>
		<path class="st15" d="M61.5,18.5c0,8.8-11.7,16-26,16 M35.5,34.5c-14.3,0-26-7.2-26-16"/>
		<ellipse class="st11" cx="35.5" cy="18.5" rx="28" ry="6"/>
		<path class="st14" d="M9.7,18.5c1.7-1.6,11-4,25.8-4 M35.5,14.5c14.8,0,24.1,2.4,25.8,4"/>
		<path class="st2" d="M12,20.5H4c-1.1,0-2-0.9-2-2v0c0-1.1,0.9-2,2-2h8c1.1,0,2,0.9,2,2v0C14,19.6,13.1,20.5,12,20.5z"/>
		<line class="st17" x1="19" y1="39.5" x2="8" y2="39.5"/>
		<line class="st17" x1="5" y1="39.5" x2="1.5" y2="39.5"/>
		<polyline class="st17" points="1.5,63.5 13,63.5 13,55.5 17,55.5 17,49.5 25,49.5 25,53.5 31,53.5 31,59.5 40,59.5 40,55.5 
			44,55.5 44,50.5 51,50.5 51,63.5 62.5,63.5 		"/>
		<line class="st17" x1="19.5" y1="63.5" x2="19.5" y2="51.5"/>
		<line class="st17" x1="22.5" y1="63.5" x2="22.5" y2="51.5"/>
		<line class="st17" x1="46" y1="53.5" x2="49" y2="53.5"/>
		<line class="st17" x1="46" y1="56" x2="49" y2="56"/>
		<line class="st17" x1="46" y1="58.5" x2="49" y2="58.5"/>
	</g>
</g>
</svg>
